<svg width="333" height="285" viewBox="0 0 333 285" fill="none" xmlns="http://www.w3.org/2000/svg">
<g filter="url(#filter0_ddd_1011_3423)">
<path d="M6.192 118.256C6.192 110.192 7.824 103.136 11.088 97.088C14.352 90.944 18.816 86.192 24.48 82.832C30.24 79.472 36.624 77.792 43.632 77.792C50.544 77.792 56.544 79.28 61.632 82.256C66.72 85.232 70.512 88.976 73.008 93.488V79.088H86.256V158H73.008V143.312C70.416 147.92 66.528 151.76 61.344 154.832C56.256 157.808 50.304 159.296 43.488 159.296C36.48 159.296 30.144 157.568 24.48 154.112C18.816 150.656 14.352 145.808 11.088 139.568C7.824 133.328 6.192 126.224 6.192 118.256ZM73.008 118.4C73.008 112.448 71.808 107.264 69.408 102.848C67.008 98.432 63.744 95.072 59.616 92.768C55.584 90.368 51.12 89.168 46.224 89.168C41.328 89.168 36.864 90.32 32.832 92.624C28.8 94.928 25.584 98.288 23.184 102.704C20.784 107.12 19.584 112.304 19.584 118.256C19.584 124.304 20.784 129.584 23.184 134.096C25.584 138.512 28.8 141.92 32.832 144.32C36.864 146.624 41.328 147.776 46.224 147.776C51.12 147.776 55.584 146.624 59.616 144.32C63.744 141.92 67.008 138.512 69.408 134.096C71.808 129.584 73.008 124.352 73.008 118.4ZM147.569 77.648C153.521 77.648 158.897 78.944 163.697 81.536C168.497 84.032 172.241 87.824 174.929 92.912C177.713 98 179.105 104.192 179.105 111.488V158H166.145V113.36C166.145 105.488 164.177 99.488 160.241 95.36C156.305 91.136 150.929 89.024 144.113 89.024C137.201 89.024 131.681 91.184 127.553 95.504C123.521 99.824 121.505 106.112 121.505 114.368V158H108.401V51.44H121.505V90.32C124.097 86.288 127.649 83.168 132.161 80.96C136.769 78.752 141.905 77.648 147.569 77.648ZM207.278 66.272C204.782 66.272 202.67 65.408 200.942 63.68C199.214 61.952 198.35 59.84 198.35 57.344C198.35 54.848 199.214 52.736 200.942 51.008C202.67 49.28 204.782 48.416 207.278 48.416C209.678 48.416 211.694 49.28 213.326 51.008C215.054 52.736 215.918 54.848 215.918 57.344C215.918 59.84 215.054 61.952 213.326 63.68C211.694 65.408 209.678 66.272 207.278 66.272ZM213.614 79.088V158H200.51V79.088H213.614ZM231.051 118.256C231.051 110.192 232.683 103.136 235.947 97.088C239.211 90.944 243.675 86.192 249.339 82.832C255.099 79.472 261.483 77.792 268.491 77.792C275.403 77.792 281.403 79.28 286.491 82.256C291.579 85.232 295.371 88.976 297.867 93.488V79.088H311.115V158H297.867V143.312C295.275 147.92 291.387 151.76 286.203 154.832C281.115 157.808 275.163 159.296 268.347 159.296C261.339 159.296 255.003 157.568 249.339 154.112C243.675 150.656 239.211 145.808 235.947 139.568C232.683 133.328 231.051 126.224 231.051 118.256ZM297.867 118.4C297.867 112.448 296.667 107.264 294.267 102.848C291.867 98.432 288.603 95.072 284.475 92.768C280.443 90.368 275.979 89.168 271.083 89.168C266.187 89.168 261.723 90.32 257.691 92.624C253.659 94.928 250.443 98.288 248.043 102.704C245.643 107.12 244.443 112.304 244.443 118.256C244.443 124.304 245.643 129.584 248.043 134.096C250.443 138.512 253.659 141.92 257.691 144.32C261.723 146.624 266.187 147.776 271.083 147.776C275.979 147.776 280.443 146.624 284.475 144.32C288.603 141.92 291.867 138.512 294.267 134.096C296.667 129.584 297.867 124.352 297.867 118.4Z" fill="black"/>
<path d="M11.088 97.088L11.968 97.5629L11.9711 97.5572L11.088 97.088ZM24.48 82.832L23.9761 81.9682L23.9698 81.9719L24.48 82.832ZM61.632 82.256L61.1271 83.1192L61.632 82.256ZM73.008 93.488L72.133 93.9721L74.008 93.488H73.008ZM73.008 79.088V78.088H72.008V79.088H73.008ZM86.256 79.088H87.256V78.088H86.256V79.088ZM86.256 158V159H87.256V158H86.256ZM73.008 158H72.008V159H73.008V158ZM73.008 143.312H74.008V139.494L72.1364 142.822L73.008 143.312ZM61.344 154.832L61.8489 155.695L61.8538 155.692L61.344 154.832ZM24.48 154.112L23.9591 154.966L24.48 154.112ZM11.088 139.568L11.9741 139.105L11.088 139.568ZM59.616 92.768L59.1045 93.6273L59.1165 93.6344L59.1286 93.6412L59.616 92.768ZM32.832 92.624L32.3359 91.7558H32.3359L32.832 92.624ZM23.184 102.704L24.0626 103.182L23.184 102.704ZM23.184 134.096L22.3011 134.566L22.3054 134.574L23.184 134.096ZM32.832 144.32L32.3205 145.179L32.3282 145.184L32.3359 145.188L32.832 144.32ZM59.616 144.32L60.1122 145.188L60.1186 145.185L59.616 144.32ZM69.408 134.096L70.2867 134.574L70.2909 134.566L69.408 134.096ZM7.192 118.256C7.192 110.329 8.7954 103.442 11.968 97.5629L10.208 96.6131C6.8526 102.83 5.192 110.055 5.192 118.256H7.192ZM11.9711 97.5572C15.1541 91.5657 19.4931 86.9531 24.9902 83.6921L23.9698 81.9719C18.1389 85.4309 13.5499 90.3223 10.2049 96.6188L11.9711 97.5572ZM24.9839 83.6958C30.583 80.4296 36.7917 78.792 43.632 78.792V76.792C36.4563 76.792 29.897 78.5144 23.9761 81.9682L24.9839 83.6958ZM43.632 78.792C50.3975 78.792 56.2169 80.2472 61.1271 83.1192L62.1369 81.3928C56.8711 78.3128 50.6905 76.792 43.632 76.792V78.792ZM61.1271 83.1192C66.0825 86.0176 69.7359 89.6389 72.133 93.9721L73.883 93.0039C71.2881 88.3131 67.3575 84.4464 62.1369 81.3928L61.1271 83.1192ZM74.008 93.488V79.088H72.008V93.488H74.008ZM73.008 80.088H86.256V78.088H73.008V80.088ZM85.256 79.088V158H87.256V79.088H85.256ZM86.256 157H73.008V159H86.256V157ZM74.008 158V143.312H72.008V158H74.008ZM72.1364 142.822C69.6419 147.256 65.8887 150.976 60.8342 153.972L61.8538 155.692C67.1673 152.544 71.1901 148.584 73.8796 143.802L72.1364 142.822ZM60.8391 153.969C55.9269 156.842 50.1547 158.296 43.488 158.296V160.296C50.4533 160.296 56.5851 158.774 61.8489 155.695L60.8391 153.969ZM43.488 158.296C36.653 158.296 30.499 156.613 25.0009 153.258L23.9591 154.966C29.789 158.523 36.307 160.296 43.488 160.296V158.296ZM25.0009 153.258C19.5014 149.903 15.1594 145.194 11.9741 139.105L10.2019 140.031C13.5446 146.422 18.1307 151.409 23.9591 154.966L25.0009 153.258ZM11.9741 139.105C8.79427 133.025 7.192 126.084 7.192 118.256H5.192C5.192 126.364 6.85373 133.631 10.2019 140.031L11.9741 139.105ZM74.008 118.4C74.008 112.312 72.7798 106.958 70.2866 102.37L68.5294 103.326C70.8362 107.57 72.008 112.584 72.008 118.4H74.008ZM70.2866 102.37C67.8022 97.7992 64.4072 94.2969 60.1034 91.8948L59.1286 93.6412C63.0808 95.8471 66.2138 99.0648 68.5294 103.326L70.2866 102.37ZM60.1275 91.9087C55.9339 89.4125 51.2919 88.168 46.224 88.168V90.168C50.9481 90.168 55.2341 91.3235 59.1045 93.6273L60.1275 91.9087ZM46.224 88.168C41.1638 88.168 36.5273 89.3607 32.3359 91.7558L33.3281 93.4922C37.2007 91.2793 41.4922 90.168 46.224 90.168V88.168ZM32.3359 91.7558C28.1293 94.1595 24.7865 97.6612 22.3054 102.226L24.0626 103.182C26.3815 98.9148 29.4707 95.6965 33.3281 93.4922L32.3359 91.7558ZM22.3054 102.226C19.8122 106.814 18.584 112.168 18.584 118.256H20.584C20.584 112.44 21.7558 107.426 24.0626 103.182L22.3054 102.226ZM18.584 118.256C18.584 124.438 19.8113 129.885 22.3011 134.566L24.0669 133.626C21.7567 129.283 20.584 124.17 20.584 118.256H18.584ZM22.3054 134.574C24.7849 139.136 28.123 142.681 32.3205 145.179L33.3435 143.461C29.477 141.159 26.3831 137.888 24.0626 133.618L22.3054 134.574ZM32.3359 145.188C36.5273 147.583 41.1638 148.776 46.224 148.776V146.776C41.4922 146.776 37.2007 145.665 33.3281 143.452L32.3359 145.188ZM46.224 148.776C51.2842 148.776 55.9207 147.583 60.1121 145.188L59.1199 143.452C55.2473 145.665 50.9558 146.776 46.224 146.776V148.776ZM60.1186 145.185C64.4135 142.687 67.8039 139.142 70.2866 134.574L68.5294 133.618C66.2121 137.882 63.0745 141.153 59.1134 143.455L60.1186 145.185ZM70.2909 134.566C72.7796 129.887 74.008 124.489 74.008 118.4H72.008C72.008 124.215 70.8364 129.281 68.5251 133.626L70.2909 134.566ZM163.697 81.536L163.221 82.4159L163.228 82.4196L163.235 82.4232L163.697 81.536ZM174.928 92.912L174.044 93.3791L174.048 93.3856L174.051 93.392L174.928 92.912ZM179.105 158V159H180.105V158H179.105ZM166.145 158H165.145V159H166.145V158ZM160.24 95.36L159.509 96.0418L159.517 96.0501L160.24 95.36ZM127.552 95.504L126.829 94.8131L126.821 94.8217L127.552 95.504ZM121.505 158V159H122.505V158H121.505ZM108.4 158H107.4V159H108.4V158ZM108.4 51.44V50.44H107.4V51.44H108.4ZM121.505 51.44H122.505V50.44H121.505V51.44ZM121.505 90.32H120.505V93.7248L122.346 90.8608L121.505 90.32ZM132.161 80.96L131.728 80.0582L131.721 80.0618L132.161 80.96ZM147.568 78.648C153.37 78.648 158.58 79.9098 163.221 82.4159L164.172 80.6561C159.213 77.9782 153.671 76.648 147.568 76.648V78.648ZM163.235 82.4232C167.843 84.8193 171.445 88.4588 174.044 93.3791L175.813 92.4449C173.036 87.1892 169.15 83.2447 164.158 80.6488L163.235 82.4232ZM174.051 93.392C176.737 98.2996 178.105 104.317 178.105 111.488H180.105C180.105 104.067 178.688 97.7004 175.806 92.432L174.051 93.392ZM178.105 111.488V158H180.105V111.488H178.105ZM179.105 157H166.145V159H179.105V157ZM167.145 158V113.36H165.145V158H167.145ZM167.145 113.36C167.145 105.33 165.136 99.0449 160.964 94.6699L159.517 96.0501C163.217 99.9311 165.145 105.646 165.145 113.36H167.145ZM160.972 94.6783C156.813 90.2146 151.151 88.024 144.113 88.024V90.024C150.706 90.024 155.796 92.0574 159.509 96.0417L160.972 94.6783ZM144.113 88.024C136.974 88.024 131.176 90.2643 126.83 94.8131L128.275 96.1949C132.185 92.1037 137.427 90.024 144.113 90.024V88.024ZM126.821 94.8217C122.558 99.3895 120.505 105.96 120.505 114.368H122.505C122.505 106.264 124.483 100.259 128.284 96.1863L126.821 94.8217ZM120.505 114.368V158H122.505V114.368H120.505ZM121.505 157H108.4V159H121.505V157ZM109.4 158V51.44H107.4V158H109.4ZM108.4 52.44H121.505V50.44H108.4V52.44ZM120.505 51.44V90.32H122.505V51.44H120.505ZM122.346 90.8608C124.834 86.9899 128.244 83.99 132.6 81.8582L131.721 80.0618C127.053 82.346 123.359 85.5861 120.663 89.7792L122.346 90.8608ZM132.593 81.8618C137.052 79.7252 142.038 78.648 147.568 78.648V76.648C141.771 76.648 136.485 77.7788 131.728 80.0582L132.593 81.8618ZM200.942 63.68L201.649 62.9729L200.942 63.68ZM200.942 51.008L201.649 51.7151L200.942 51.008ZM213.326 51.008L212.599 51.6946L212.609 51.705L212.619 51.7151L213.326 51.008ZM213.326 63.68L212.619 62.9729L212.609 62.983L212.599 62.9934L213.326 63.68ZM213.614 79.088H214.614V78.088H213.614V79.088ZM213.614 158V159H214.614V158H213.614ZM200.51 158H199.51V159H200.51V158ZM200.51 79.088V78.088H199.51V79.088H200.51ZM207.278 65.272C205.041 65.272 203.185 64.5089 201.649 62.9729L200.235 64.3871C202.155 66.3071 204.523 67.272 207.278 67.272V65.272ZM201.649 62.9729C200.113 61.4369 199.35 59.5811 199.35 57.344H197.35C197.35 60.0989 198.315 62.4671 200.235 64.3871L201.649 62.9729ZM199.35 57.344C199.35 55.1069 200.113 53.2511 201.649 51.7151L200.235 50.3009C198.315 52.2209 197.35 54.5891 197.35 57.344H199.35ZM201.649 51.7151C203.185 50.1791 205.041 49.416 207.278 49.416V47.416C204.523 47.416 202.155 48.3809 200.235 50.3009L201.649 51.7151ZM207.278 49.416C209.406 49.416 211.158 50.1688 212.599 51.6946L214.053 50.3214C212.23 48.3911 209.95 47.416 207.278 47.416V49.416ZM212.619 51.7151C214.155 53.2511 214.918 55.1069 214.918 57.344H216.918C216.918 54.5891 215.953 52.2209 214.033 50.3009L212.619 51.7151ZM214.918 57.344C214.918 59.5811 214.155 61.4369 212.619 62.9729L214.033 64.3871C215.953 62.4671 216.918 60.0989 216.918 57.344H214.918ZM212.599 62.9934C211.158 64.5191 209.406 65.272 207.278 65.272V67.272C209.95 67.272 212.23 66.2968 214.053 64.3666L212.599 62.9934ZM212.614 79.088V158H214.614V79.088H212.614ZM213.614 157H200.51V159H213.614V157ZM201.51 158V79.088H199.51V158H201.51ZM200.51 80.088H213.614V78.088H200.51V80.088ZM235.947 97.088L236.827 97.5629L236.83 97.5572L235.947 97.088ZM249.339 82.832L248.835 81.9682L248.829 81.9719L249.339 82.832ZM286.491 82.256L285.987 83.1192L286.491 82.256ZM297.867 93.488L296.992 93.9721L298.867 93.488H297.867ZM297.867 79.088V78.088H296.867V79.088H297.867ZM311.115 79.088H312.115V78.088H311.115V79.088ZM311.115 158V159H312.115V158H311.115ZM297.867 158H296.867V159H297.867V158ZM297.867 143.312H298.867V139.494L296.996 142.822L297.867 143.312ZM286.203 154.832L286.708 155.695L286.713 155.692L286.203 154.832ZM249.339 154.112L248.819 154.966L249.339 154.112ZM235.947 139.568L236.833 139.105L235.947 139.568ZM284.475 92.768L283.964 93.6273L283.976 93.6344L283.988 93.6412L284.475 92.768ZM257.691 92.624L257.195 91.7558L257.691 92.624ZM248.043 102.704L248.922 103.182L248.043 102.704ZM248.043 134.096L247.16 134.566L247.165 134.574L248.043 134.096ZM257.691 144.32L257.18 145.179L257.188 145.184L257.195 145.188L257.691 144.32ZM284.475 144.32L284.972 145.188L284.978 145.185L284.475 144.32ZM294.267 134.096L295.146 134.574L295.15 134.566L294.267 134.096ZM232.051 118.256C232.051 110.329 233.655 103.442 236.827 97.5629L235.067 96.6131C231.712 102.83 230.051 110.055 230.051 118.256H232.051ZM236.83 97.5572C240.013 91.5657 244.352 86.9531 249.85 83.6921L248.829 81.9719C242.998 85.4309 238.409 90.3223 235.064 96.6188L236.83 97.5572ZM249.843 83.6958C255.442 80.4296 261.651 78.792 268.491 78.792V76.792C261.316 76.792 254.756 78.5144 248.836 81.9682L249.843 83.6958ZM268.491 78.792C275.257 78.792 281.076 80.2472 285.987 83.1192L286.996 81.3928C281.73 78.3128 275.55 76.792 268.491 76.792V78.792ZM285.987 83.1192C290.942 86.0176 294.595 89.6389 296.992 93.9721L298.742 93.0039C296.147 88.3131 292.217 84.4464 286.996 81.3928L285.987 83.1192ZM298.867 93.488V79.088H296.867V93.488H298.867ZM297.867 80.088H311.115V78.088H297.867V80.088ZM310.115 79.088V158H312.115V79.088H310.115ZM311.115 157H297.867V159H311.115V157ZM298.867 158V143.312H296.867V158H298.867ZM296.996 142.822C294.501 147.256 290.748 150.976 285.694 153.972L286.713 155.692C292.027 152.544 296.049 148.584 298.739 143.802L296.996 142.822ZM285.698 153.969C280.786 156.842 275.014 158.296 268.347 158.296V160.296C275.313 160.296 281.445 158.774 286.708 155.695L285.698 153.969ZM268.347 158.296C261.512 158.296 255.358 156.613 249.86 153.258L248.819 154.966C254.648 158.523 261.166 160.296 268.347 160.296V158.296ZM249.86 153.258C244.361 149.903 240.019 145.194 236.833 139.105L235.061 140.031C238.404 146.422 242.99 151.409 248.819 154.966L249.86 153.258ZM236.833 139.105C233.654 133.025 232.051 126.084 232.051 118.256H230.051C230.051 126.364 231.713 133.631 235.061 140.031L236.833 139.105ZM298.867 118.4C298.867 112.312 297.639 106.958 295.146 102.37L293.389 103.326C295.696 107.57 296.867 112.584 296.867 118.4H298.867ZM295.146 102.37C292.662 97.7992 289.267 94.2969 284.963 91.8948L283.988 93.6412C287.94 95.8471 291.073 99.0648 293.389 103.326L295.146 102.37ZM284.987 91.9087C280.793 89.4125 276.151 88.168 271.083 88.168V90.168C275.807 90.168 280.093 91.3235 283.964 93.6273L284.987 91.9087ZM271.083 88.168C266.023 88.168 261.387 89.3607 257.195 91.7558L258.188 93.4922C262.06 91.2793 266.352 90.168 271.083 90.168V88.168ZM257.195 91.7558C252.989 94.1595 249.646 97.6612 247.165 102.226L248.922 103.182C251.241 98.9148 254.33 95.6965 258.188 93.4922L257.195 91.7558ZM247.165 102.226C244.672 106.814 243.443 112.168 243.443 118.256H245.443C245.443 112.44 246.615 107.426 248.922 103.182L247.165 102.226ZM243.443 118.256C243.443 124.438 244.671 129.885 247.161 134.566L248.926 133.626C246.616 129.283 245.443 124.17 245.443 118.256H243.443ZM247.165 134.574C249.644 139.136 252.982 142.681 257.18 145.179L258.203 143.461C254.336 141.159 251.242 137.888 248.922 133.618L247.165 134.574ZM257.195 145.188C261.387 147.583 266.023 148.776 271.083 148.776V146.776C266.352 146.776 262.06 145.665 258.188 143.452L257.195 145.188ZM271.083 148.776C276.144 148.776 280.78 147.583 284.972 145.188L283.979 143.452C280.107 145.665 275.815 146.776 271.083 146.776V148.776ZM284.978 145.185C289.273 142.687 292.663 139.142 295.146 134.574L293.389 133.618C291.071 137.882 287.934 141.153 283.973 143.455L284.978 145.185ZM295.15 134.566C297.639 129.887 298.867 124.489 298.867 118.4H296.867C296.867 124.215 295.696 129.281 293.384 133.626L295.15 134.566Z" fill="black"/>
</g>
<path d="M27.4766 251.047C31.0703 247.87 34.1562 245.109 36.7344 242.766C39.3125 240.396 41.3307 238.534 42.7891 237.18C44.2734 235.826 45.5755 234.68 46.6953 233.742C47.8151 232.805 48.5312 232.336 48.8438 232.336C49.4427 232.31 50.0156 232.935 50.5625 234.211C51.1094 235.461 51.3828 236.464 51.3828 237.219C51.3828 237.714 50.5495 238.885 48.8828 240.734C47.2422 242.557 46.0052 244.016 45.1719 245.109C44.3646 246.203 43.9609 247.349 43.9609 248.547C43.9609 249.25 44.1953 249.823 44.6641 250.266C45.1328 250.682 45.6927 250.891 46.3438 250.891C47.099 250.891 47.9974 250.5 49.0391 249.719C50.1068 248.938 51.7734 247.544 54.0391 245.539V248.312C51.7734 250.448 49.7161 252.297 47.8672 253.859C46.0182 255.396 44.4036 256.555 43.0234 257.336C41.6693 258.091 40.5365 258.469 39.625 258.469C38.8177 258.469 38.1406 258.169 37.5938 257.57C37.0469 256.945 36.7734 256.177 36.7734 255.266C36.7734 254.38 36.9297 253.482 37.2422 252.57C37.5547 251.659 38.0365 250.578 38.6875 249.328C39.3385 248.078 40.1979 246.581 41.2656 244.836C42.3333 243.065 43.3099 241.451 44.1953 239.992C41.5391 242.154 39.1823 244.237 37.125 246.242C35.0677 248.247 33.388 250.005 32.0859 251.516C30.7839 253 29.7552 254.172 29 255.031C27.5417 256.646 26.1875 257.453 24.9375 257.453C23.5833 257.453 22.9062 256.49 22.9062 254.562C22.9062 253.781 23.4141 252.388 24.4297 250.383C25.4453 248.352 26.8906 245.773 28.7656 242.648C28.9219 242.44 29 242.115 29 241.672C29 241.151 28.7396 240.891 28.2188 240.891C27.6458 240.891 26.8125 241.438 25.7188 242.531C24.651 243.599 22.5677 245.852 19.4688 249.289C18.6094 250.253 17.6328 251.516 16.5391 253.078C15.4714 254.615 14.7031 255.643 14.2344 256.164C13.7656 256.685 13.2969 256.945 12.8281 256.945C11.8906 256.945 11.0182 256.112 10.2109 254.445C9.40365 252.779 9 250.839 9 248.625C9 247.01 9.26042 245.617 9.78125 244.445C10.3281 243.273 11.1615 241.815 12.2812 240.07C14.026 237.544 15.4453 235.747 16.5391 234.68C17.6589 233.586 18.8307 233.039 20.0547 233.039C20.8099 233.039 21.4479 233.195 21.9688 233.508C22.4896 233.794 22.75 234.198 22.75 234.719C22.75 235.266 22.2682 236.164 21.3047 237.414C20.3672 238.664 19.1693 239.953 17.7109 241.281C16.9297 242.036 16.1875 242.974 15.4844 244.094C14.7812 245.188 14.4297 245.982 14.4297 246.477C14.4297 247.18 14.7031 247.531 15.25 247.531C15.6927 247.531 16.8125 246.62 18.6094 244.797C20.4062 242.974 22.3724 240.995 24.5078 238.859C26.6693 236.698 28.6615 234.914 30.4844 233.508C32.3333 232.076 33.8958 231.359 35.1719 231.359C35.9531 231.359 36.5911 231.659 37.0859 232.258C37.6068 232.831 37.8672 233.547 37.8672 234.406C37.8672 234.979 37.4766 236.021 36.6953 237.531C35.9141 239.016 34.7682 240.865 33.2578 243.078C31.7734 245.266 29.8464 247.922 27.4766 251.047ZM58.3359 238.703C62.2943 235.109 66.1354 232.44 69.8594 230.695C73.5833 228.951 76.4609 228.078 78.4922 228.078C79.0391 228.078 79.5469 228.312 80.0156 228.781C80.4844 229.224 80.849 229.745 81.1094 230.344C81.3958 230.943 81.5391 231.385 81.5391 231.672C81.5391 232.141 81.3568 232.492 80.9922 232.727C80.6276 232.935 79.9896 233.195 79.0781 233.508C79.2604 233.924 79.4948 234.458 79.7812 235.109C80.0677 235.76 80.2891 236.294 80.4453 236.711C80.6016 237.102 80.6797 237.453 80.6797 237.766C80.6797 238.391 80.0417 239.562 78.7656 241.281C77.5156 242.974 76.6302 244.224 76.1094 245.031C75.6146 245.839 75.3672 246.828 75.3672 248C75.3672 249.927 76.2526 250.891 78.0234 250.891C79.8464 250.891 82.6979 249.185 86.5781 245.773V248.156C79.9896 255.474 75.276 259.133 72.4375 259.133C71.4219 259.133 70.6927 258.794 70.25 258.117C69.8333 257.466 69.625 256.49 69.625 255.188C69.625 253.13 70.3672 250.148 71.8516 246.242C68.0495 250.461 65.224 253.469 63.375 255.266C61.526 257.036 60.0026 257.922 58.8047 257.922C58.2318 257.922 57.5156 257.427 56.6562 256.438C55.7969 255.448 55.0286 254.172 54.3516 252.609C53.7005 251.021 53.375 249.38 53.375 247.688C53.375 246.464 53.4922 245.448 53.7266 244.641C53.9609 243.807 54.4167 242.961 55.0938 242.102C55.7708 241.242 56.8516 240.109 58.3359 238.703ZM77.0469 234.406C70.276 237.505 65.4453 240.135 62.5547 242.297C59.6901 244.458 58.2578 246.685 58.2578 248.977C58.2578 249.81 58.401 250.5 58.6875 251.047C58.974 251.568 59.3646 251.828 59.8594 251.828C60.1458 251.828 60.6536 251.646 61.3828 251.281C64.1172 249.667 66.6172 247.57 68.8828 244.992C71.1484 242.388 73.8698 238.859 77.0469 234.406ZM85.875 248.703V246.164C87.2812 244.497 88.349 243.078 89.0781 241.906C88.2448 241.62 87.6328 241.268 87.2422 240.852C86.8776 240.435 86.6953 239.81 86.6953 238.977C86.6953 238.039 87.0859 236.854 87.8672 235.422C88.6484 233.99 89.612 232.648 90.7578 231.398C91.9036 230.148 92.9453 229.341 93.8828 228.977C94.2474 228.794 94.599 228.703 94.9375 228.703C95.4583 228.703 95.7188 228.951 95.7188 229.445C95.7188 229.888 95.3151 230.786 94.5078 232.141C99.8724 231.307 103.258 230.891 104.664 230.891C105.211 230.891 105.589 230.943 105.797 231.047C106.24 231.281 106.604 231.828 106.891 232.688C107.177 233.547 107.32 234.406 107.32 235.266C107.32 235.812 107.073 236.411 106.578 237.062C106.109 237.688 105.289 238.612 104.117 239.836C102.737 241.32 101.578 242.935 100.641 244.68C99.7031 246.424 99.2344 247.74 99.2344 248.625C99.2344 249.849 99.9896 250.461 101.5 250.461C103.089 250.461 105.849 248.846 109.781 245.617V248.234C107.62 250.5 105.836 252.284 104.43 253.586C103.023 254.888 101.721 255.93 100.523 256.711C99.3255 257.466 98.2578 257.844 97.3203 257.844C96.2266 257.844 95.3151 257.349 94.5859 256.359C93.8568 255.344 93.4922 253.885 93.4922 251.984C93.4922 250.865 93.7786 249.589 94.3516 248.156C94.9245 246.724 95.7578 245.174 96.8516 243.508C97.9714 241.815 99.2214 240.135 100.602 238.469C99.8724 238.625 99.0521 238.794 98.1406 238.977C97.2292 239.133 96.2656 239.302 95.25 239.484C94.2344 239.667 93.4531 239.81 92.9062 239.914C91.2917 243.143 88.9479 246.073 85.875 248.703ZM139.078 245.695V248.312C136.161 251.724 133.714 254.315 131.734 256.086C129.755 257.831 128.102 258.703 126.773 258.703C125.497 258.703 124.339 258.326 123.297 257.57C122.281 256.815 121.357 255.773 120.523 254.445C119.716 253.117 118.753 251.268 117.633 248.898C116.305 250.539 115.107 252.076 114.039 253.508C112.971 254.914 112.229 255.852 111.812 256.32C111.396 256.789 111.018 257.023 110.68 257.023C109.977 257.023 109.469 256.581 109.156 255.695C108.844 254.784 108.688 253.469 108.688 251.75C108.688 249.406 108.961 247.154 109.508 244.992C110.081 242.805 110.888 240.682 111.93 238.625C112.997 236.568 114.352 234.354 115.992 231.984C117.659 229.589 119.521 227.089 121.578 224.484C124.417 220.891 126.865 217.961 128.922 215.695C130.979 213.404 132.763 211.685 134.273 210.539C135.81 209.367 137.086 208.781 138.102 208.781C139.352 208.781 139.977 209.341 139.977 210.461C139.977 211.424 137.672 214.901 133.062 220.891C128.453 226.854 121.734 235.005 112.906 245.344V248.703C118.818 242.375 123.57 237.674 127.164 234.602C130.784 231.529 133.583 229.992 135.562 229.992C136.37 229.992 136.995 230.474 137.438 231.438C137.88 232.375 138.102 233.469 138.102 234.719C138.102 237.271 137.008 239.641 134.82 241.828C132.633 243.99 129.273 246.477 124.742 249.289C125.523 250.461 126.214 251.32 126.812 251.867C127.411 252.388 128.167 252.648 129.078 252.648C129.885 252.648 130.758 252.375 131.695 251.828C132.633 251.281 133.583 250.591 134.547 249.758C135.536 248.924 137.047 247.57 139.078 245.695ZM123.648 247.688C124.638 247.036 125.862 246.034 127.32 244.68C128.805 243.299 130.068 241.88 131.109 240.422C132.151 238.938 132.672 237.701 132.672 236.711C132.672 236.294 132.49 236.086 132.125 236.086C131.135 236.086 129.43 237.036 127.008 238.938C124.612 240.839 122.268 243.273 119.977 246.242C120.966 246.242 122.19 246.724 123.648 247.688ZM145.094 247.102V248.078C145.094 249.615 145.471 250.812 146.227 251.672C146.982 252.531 147.971 252.961 149.195 252.961C150.471 252.961 151.786 252.661 153.141 252.062C154.521 251.464 155.888 250.669 157.242 249.68C158.596 248.69 160.25 247.362 162.203 245.695V248.078C159.26 251.62 156.5 254.341 153.922 256.242C151.344 258.117 148.727 259.055 146.07 259.055C143.753 259.055 141.917 258.156 140.562 256.359C139.208 254.562 138.531 252.102 138.531 248.977C138.531 246.242 139.169 243.768 140.445 241.555C141.721 239.315 143.805 236.958 146.695 234.484C148.674 232.792 150.641 231.516 152.594 230.656C154.547 229.797 156.292 229.367 157.828 229.367C159.052 229.367 160.016 229.654 160.719 230.227C161.448 230.773 161.812 231.607 161.812 232.727C161.812 234.367 161.201 236.008 159.977 237.648C158.753 239.263 156.878 240.878 154.352 242.492C151.852 244.081 148.766 245.617 145.094 247.102ZM145.484 244.562C147.828 243.651 149.833 242.518 151.5 241.164C153.167 239.81 154.391 238.521 155.172 237.297C155.979 236.047 156.383 235.135 156.383 234.562C156.383 233.964 156.109 233.664 155.562 233.664C155.094 233.664 154.326 233.964 153.258 234.562C152.216 235.161 151.148 235.943 150.055 236.906C148.987 237.87 148.023 239.003 147.164 240.305C146.305 241.607 145.745 243.026 145.484 244.562ZM175.914 225.422H177.594C178.974 222.948 180.224 221.203 181.344 220.188C182.464 219.146 183.74 218.625 185.172 218.625C186.604 218.625 187.32 218.951 187.32 219.602C187.32 219.914 186.76 220.76 185.641 222.141C184.521 223.521 183.674 224.68 183.102 225.617C183.987 225.721 184.768 225.812 185.445 225.891C186.148 225.969 186.695 226.034 187.086 226.086C185.602 228.846 183.74 231.672 181.5 234.562C180.771 234.51 180.159 234.471 179.664 234.445C179.169 234.393 178.661 234.354 178.141 234.328C177.646 234.276 177.034 234.224 176.305 234.172C174.898 236.438 173.714 238.469 172.75 240.266C171.812 242.036 171.083 243.664 170.562 245.148C170.068 246.633 169.82 248.039 169.82 249.367C169.82 251.164 170.536 252.062 171.969 252.062C172.958 252.062 174.247 251.542 175.836 250.5C177.451 249.432 179.599 247.805 182.281 245.617V248.234C175.25 255.865 170.055 259.68 166.695 259.68C165.523 259.68 164.573 259.224 163.844 258.312C163.141 257.401 162.789 256.229 162.789 254.797C162.789 253.833 162.984 252.688 163.375 251.359C163.792 250.031 164.521 248.026 165.562 245.344C165.198 245.656 164.846 245.969 164.508 246.281C164.195 246.568 163.896 246.841 163.609 247.102C163.349 247.336 163.062 247.596 162.75 247.883C162.438 248.143 162.125 248.417 161.812 248.703V246.008C164.547 243.716 167.854 239.693 171.734 233.938C171.344 233.911 170.979 233.898 170.641 233.898C170.302 233.872 169.898 233.859 169.43 233.859C167.893 233.859 166.747 233.964 165.992 234.172C165.68 234.25 165.38 234.341 165.094 234.445C164.833 234.523 164.651 234.562 164.547 234.562C164.443 234.562 164.391 234.484 164.391 234.328C164.391 233.469 164.924 232.18 165.992 230.461C166.852 229.003 167.659 227.922 168.414 227.219C169.195 226.516 170.133 226.047 171.227 225.812C172.346 225.552 173.909 225.422 175.914 225.422ZM181.734 248.977V246.242C185.38 242.284 188.518 238.56 191.148 235.07C193.805 231.581 195.901 228.807 197.438 226.75C198.974 224.693 200.328 223.247 201.5 222.414C202.672 221.555 204.143 221.125 205.914 221.125C206.799 221.125 207.242 221.464 207.242 222.141C207.242 222.688 206.878 223.495 206.148 224.562C205.445 225.63 204.534 226.724 203.414 227.844C201.93 229.302 200.471 231.138 199.039 233.352C197.633 235.539 196.031 238.339 194.234 241.75C195.641 240.656 197.255 239.367 199.078 237.883C200.927 236.372 202.424 235.201 203.57 234.367C204.742 233.508 205.888 232.831 207.008 232.336C208.154 231.841 209.299 231.594 210.445 231.594C211.174 231.594 211.643 231.724 211.852 231.984C212.086 232.245 212.203 232.753 212.203 233.508C212.203 235.487 211.721 237.427 210.758 239.328C209.794 241.203 208.414 243.156 206.617 245.188C204.82 247.219 202.607 249.432 199.977 251.828C200.888 252.167 201.826 252.336 202.789 252.336C205.81 252.336 209.859 250.031 214.938 245.422V248.234C212.958 250.005 211.018 251.672 209.117 253.234C207.242 254.797 205.471 256.047 203.805 256.984C202.138 257.922 200.602 258.391 199.195 258.391C198.674 258.391 198.115 258.326 197.516 258.195C196.943 258.091 196.409 257.961 195.914 257.805C195.419 257.622 194.781 257.375 194 257.062C193.219 256.75 192.62 256.529 192.203 256.398C191.37 256.607 190.901 256.711 190.797 256.711C189.885 256.711 188.818 256.346 187.594 255.617C186.734 257.284 185.784 259.432 184.742 262.062C183.727 264.719 182.867 266.828 182.164 268.391C181.461 269.953 180.523 271.451 179.352 272.883C178.701 273.534 178.245 273.859 177.984 273.859C176.865 273.859 176.305 272.87 176.305 270.891C176.305 269.172 176.656 267.375 177.359 265.5C178.036 263.651 178.883 261.893 179.898 260.227C180.888 258.56 181.982 256.88 183.18 255.188C184.378 253.469 185.224 252.193 185.719 251.359C189.833 244.276 193.036 238.247 195.328 233.273C189.339 240.565 184.807 245.799 181.734 248.977ZM197.594 250.891C200.172 248.182 202.086 245.878 203.336 243.977C204.612 242.076 205.25 240.617 205.25 239.602C205.25 238.638 204.768 238.156 203.805 238.156C202.503 238.156 200.667 239.237 198.297 241.398C195.953 243.534 193.531 246.424 191.031 250.07C192.958 249.862 194.247 249.797 194.898 249.875C195.549 249.927 196.448 250.266 197.594 250.891ZM233.375 245.266V248.156C227.932 255.37 223.505 258.977 220.094 258.977C218.245 258.977 216.786 257.974 215.719 255.969C214.677 253.938 214.156 251.281 214.156 248C214.156 245.344 214.781 242.193 216.031 238.547C217.281 234.875 218.948 231.164 221.031 227.414C223.141 223.638 225.315 220.357 227.555 217.57C229.82 214.758 231.917 212.792 233.844 211.672C234.625 211.203 235.237 210.969 235.68 210.969C236.227 210.969 236.591 211.216 236.773 211.711C236.956 212.18 237.047 213 237.047 214.172C237.047 217.792 235.576 222.245 232.633 227.531C229.69 232.792 225.589 238.169 220.328 243.664C220.068 245.018 219.938 246.06 219.938 246.789C219.938 248.456 220.289 249.81 220.992 250.852C221.721 251.893 222.724 252.414 224 252.414C224.651 252.414 225.354 252.167 226.109 251.672C226.865 251.151 227.659 250.513 228.492 249.758C229.326 249.003 230.953 247.505 233.375 245.266ZM221.695 238.234C223.049 236.906 224.352 235.396 225.602 233.703C226.878 232.01 228.076 230.201 229.195 228.273C230.315 226.346 231.188 224.615 231.812 223.078C232.464 221.542 232.789 220.383 232.789 219.602C232.789 219.003 232.581 218.703 232.164 218.703C232.008 218.703 231.708 218.846 231.266 219.133C229.677 220.435 227.893 222.987 225.914 226.789C223.935 230.565 222.529 234.38 221.695 238.234ZM237.633 238.703C241.591 235.109 245.432 232.44 249.156 230.695C252.88 228.951 255.758 228.078 257.789 228.078C258.336 228.078 258.844 228.312 259.312 228.781C259.781 229.224 260.146 229.745 260.406 230.344C260.693 230.943 260.836 231.385 260.836 231.672C260.836 232.141 260.654 232.492 260.289 232.727C259.924 232.935 259.286 233.195 258.375 233.508C258.557 233.924 258.792 234.458 259.078 235.109C259.365 235.76 259.586 236.294 259.742 236.711C259.898 237.102 259.977 237.453 259.977 237.766C259.977 238.391 259.339 239.562 258.062 241.281C256.812 242.974 255.927 244.224 255.406 245.031C254.911 245.839 254.664 246.828 254.664 248C254.664 249.927 255.549 250.891 257.32 250.891C259.143 250.891 261.995 249.185 265.875 245.773V248.156C259.286 255.474 254.573 259.133 251.734 259.133C250.719 259.133 249.99 258.794 249.547 258.117C249.13 257.466 248.922 256.49 248.922 255.188C248.922 253.13 249.664 250.148 251.148 246.242C247.346 250.461 244.521 253.469 242.672 255.266C240.823 257.036 239.299 257.922 238.102 257.922C237.529 257.922 236.812 257.427 235.953 256.438C235.094 255.448 234.326 254.172 233.648 252.609C232.997 251.021 232.672 249.38 232.672 247.688C232.672 246.464 232.789 245.448 233.023 244.641C233.258 243.807 233.714 242.961 234.391 242.102C235.068 241.242 236.148 240.109 237.633 238.703ZM256.344 234.406C249.573 237.505 244.742 240.135 241.852 242.297C238.987 244.458 237.555 246.685 237.555 248.977C237.555 249.81 237.698 250.5 237.984 251.047C238.271 251.568 238.661 251.828 239.156 251.828C239.443 251.828 239.951 251.646 240.68 251.281C243.414 249.667 245.914 247.57 248.18 244.992C250.445 242.388 253.167 238.859 256.344 234.406ZM289.078 245.773V248.391C286.292 251.125 284.013 253.247 282.242 254.758C280.497 256.268 278.857 257.44 277.32 258.273C275.81 259.107 274.326 259.523 272.867 259.523C271.435 259.523 270.12 258.964 268.922 257.844C267.724 256.698 266.786 255.214 266.109 253.391C265.432 251.542 265.094 249.589 265.094 247.531C265.094 245.76 265.484 244.185 266.266 242.805C267.047 241.424 268.557 239.641 270.797 237.453C273.453 234.849 275.914 232.844 278.18 231.438C280.471 230.005 282.268 229.289 283.57 229.289C284.508 229.289 285.302 229.615 285.953 230.266C286.604 230.917 286.93 231.737 286.93 232.727C286.93 233.56 286.5 234.745 285.641 236.281C284.781 237.818 283.818 239.159 282.75 240.305C281.682 241.424 280.836 241.984 280.211 241.984C279.534 241.984 279.195 241.62 279.195 240.891C279.221 240.682 279.234 240.487 279.234 240.305C279.26 240.122 279.273 239.94 279.273 239.758C279.273 239.445 279.156 239.276 278.922 239.25C278.714 239.198 278.453 239.289 278.141 239.523C275.536 241.346 273.753 242.635 272.789 243.391C271.826 244.12 271.057 244.862 270.484 245.617C269.938 246.372 269.664 247.167 269.664 248C269.664 249.536 270.159 250.786 271.148 251.75C272.138 252.714 273.427 253.195 275.016 253.195C276.656 253.195 278.622 252.57 280.914 251.32C283.232 250.044 285.953 248.195 289.078 245.773ZM295.172 247.102V248.078C295.172 249.615 295.549 250.812 296.305 251.672C297.06 252.531 298.049 252.961 299.273 252.961C300.549 252.961 301.865 252.661 303.219 252.062C304.599 251.464 305.966 250.669 307.32 249.68C308.674 248.69 310.328 247.362 312.281 245.695V248.078C309.339 251.62 306.578 254.341 304 256.242C301.422 258.117 298.805 259.055 296.148 259.055C293.831 259.055 291.995 258.156 290.641 256.359C289.286 254.562 288.609 252.102 288.609 248.977C288.609 246.242 289.247 243.768 290.523 241.555C291.799 239.315 293.883 236.958 296.773 234.484C298.753 232.792 300.719 231.516 302.672 230.656C304.625 229.797 306.37 229.367 307.906 229.367C309.13 229.367 310.094 229.654 310.797 230.227C311.526 230.773 311.891 231.607 311.891 232.727C311.891 234.367 311.279 236.008 310.055 237.648C308.831 239.263 306.956 240.878 304.43 242.492C301.93 244.081 298.844 245.617 295.172 247.102ZM295.562 244.562C297.906 243.651 299.911 242.518 301.578 241.164C303.245 239.81 304.469 238.521 305.25 237.297C306.057 236.047 306.461 235.135 306.461 234.562C306.461 233.964 306.188 233.664 305.641 233.664C305.172 233.664 304.404 233.964 303.336 234.562C302.294 235.161 301.227 235.943 300.133 236.906C299.065 237.87 298.102 239.003 297.242 240.305C296.383 241.607 295.823 243.026 295.562 244.562Z" fill="black"/>
<g filter="url(#filter1_dd_1011_3423)">
<circle cx="207" cy="190" r="9" fill="black"/>
</g>
<defs>
<filter id="filter0_ddd_1011_3423" x="2.192" y="48.416" width="312.923" height="118.88" filterUnits="userSpaceOnUse" color-interpolation-filters="sRGB">
<feFlood flood-opacity="0" result="BackgroundImageFix"/>
<feColorMatrix in="SourceAlpha" type="matrix" values="0 0 0 0 0 0 0 0 0 0 0 0 0 0 0 0 0 0 127 0" result="hardAlpha"/>
<feOffset dy="4"/>
<feGaussianBlur stdDeviation="2"/>
<feComposite in2="hardAlpha" operator="out"/>
<feColorMatrix type="matrix" values="0 0 0 0 0 0 0 0 0 0 0 0 0 0 0 0 0 0 0.25 0"/>
<feBlend mode="normal" in2="BackgroundImageFix" result="effect1_dropShadow_1011_3423"/>
<feColorMatrix in="SourceAlpha" type="matrix" values="0 0 0 0 0 0 0 0 0 0 0 0 0 0 0 0 0 0 127 0" result="hardAlpha"/>
<feOffset dy="4"/>
<feGaussianBlur stdDeviation="2"/>
<feComposite in2="hardAlpha" operator="out"/>
<feColorMatrix type="matrix" values="0 0 0 0 0 0 0 0 0 0 0 0 0 0 0 0 0 0 0.25 0"/>
<feBlend mode="normal" in2="effect1_dropShadow_1011_3423" result="effect2_dropShadow_1011_3423"/>
<feColorMatrix in="SourceAlpha" type="matrix" values="0 0 0 0 0 0 0 0 0 0 0 0 0 0 0 0 0 0 127 0" result="hardAlpha"/>
<feOffset dy="4"/>
<feGaussianBlur stdDeviation="2"/>
<feComposite in2="hardAlpha" operator="out"/>
<feColorMatrix type="matrix" values="0 0 0 0 0 0 0 0 0 0 0 0 0 0 0 0 0 0 0.25 0"/>
<feBlend mode="normal" in2="effect2_dropShadow_1011_3423" result="effect3_dropShadow_1011_3423"/>
<feBlend mode="normal" in="SourceGraphic" in2="effect3_dropShadow_1011_3423" result="shape"/>
</filter>
<filter id="filter1_dd_1011_3423" x="194" y="181" width="26" height="26" filterUnits="userSpaceOnUse" color-interpolation-filters="sRGB">
<feFlood flood-opacity="0" result="BackgroundImageFix"/>
<feColorMatrix in="SourceAlpha" type="matrix" values="0 0 0 0 0 0 0 0 0 0 0 0 0 0 0 0 0 0 127 0" result="hardAlpha"/>
<feOffset dy="4"/>
<feGaussianBlur stdDeviation="2"/>
<feComposite in2="hardAlpha" operator="out"/>
<feColorMatrix type="matrix" values="0 0 0 0 0 0 0 0 0 0 0 0 0 0 0 0 0 0 0.25 0"/>
<feBlend mode="normal" in2="BackgroundImageFix" result="effect1_dropShadow_1011_3423"/>
<feColorMatrix in="SourceAlpha" type="matrix" values="0 0 0 0 0 0 0 0 0 0 0 0 0 0 0 0 0 0 127 0" result="hardAlpha"/>
<feOffset dy="4"/>
<feGaussianBlur stdDeviation="2"/>
<feComposite in2="hardAlpha" operator="out"/>
<feColorMatrix type="matrix" values="0 0 0 0 0 0 0 0 0 0 0 0 0 0 0 0 0 0 0.25 0"/>
<feBlend mode="normal" in2="effect1_dropShadow_1011_3423" result="effect2_dropShadow_1011_3423"/>
<feBlend mode="normal" in="SourceGraphic" in2="effect2_dropShadow_1011_3423" result="shape"/>
</filter>
</defs>
</svg>
